# xmcd
#
# Track frame offsets:
#	150
#	10552
#	17992
#	26837
#	36050
#	45360
#	54202
#	61832
#	71605
#	80377
#	92832
#	101447
#	109175
#	118190
#	127997
#	141480
#	153260
#	161577
#	170460
#	179632
#	186487
#	198765
#	210100
#	217065
#	225390
#	234932
#
# Disc length: 3268 seconds
#
# Revision: 1
# Processed by: cddbd v1.5.1PL0 Copyright (c) Steve Scherf et al.
# Submitted via: CDex 1.50Beta5
#
DISCID=560cc21a
DTITLE=Various Artist - 最新こどものうた大全集 [CD1]
DYEAR=1900
DGENRE=
TTITLE0=だんご3兄弟
TTITLE1=こうえんにいきましょう
TTITLE2=おおきなくちあけて
TTITLE3=わっ!!おしゃれ
TTITLE4=ぞうさんとくものす
TTITLE5=こねこのパンやさん
TTITLE6=ゴリラのおんがくかい
TTITLE7=ブレーメンのおんがくたい
TTITLE8=そうだったらいいのにな
TTITLE9=さんぽ
TTITLE10=もりのファミリーレストラン
TTITLE11=くいしんぼおばけ
TTITLE12=つめ・かみ・みみ太郎
TTITLE13=パンダうさぎコアラ
TTITLE14=あ・い・うー
TTITLE15=ごめんな・サイです
TTITLE16=つくしのムック
TTITLE17=ぼくのミックスジュース
TTITLE18=げんきのキホン
TTITLE19=おおきいて ちいさいて
TTITLE20=ふゆのおと
TTITLE21=おひるねしましょう
TTITLE22=わらいねこ・ハッピネス
TTITLE23=イカイカイルカ
TTITLE24=もしもきせつがいちどにきたら
TTITLE25=だんご3兄弟(カラオケ)
EXTD=
EXTT0=
EXTT1=
EXTT2=
EXTT3=
EXTT4=
EXTT5=
EXTT6=
EXTT7=
EXTT8=
EXTT9=
EXTT10=
EXTT11=
EXTT12=
EXTT13=
EXTT14=
EXTT15=
EXTT16=
EXTT17=
EXTT18=
EXTT19=
EXTT20=
EXTT21=
EXTT22=
EXTT23=
EXTT24=
EXTT25=
PLAYORDER=
